<svg width="123" height="47" viewBox="0 0 123 47" fill="none" xmlns="http://www.w3.org/2000/svg">
<g clip-path="url(#clip0)">
<path d="M28.1014 4.65518L6.80151 25.8305H14.7019L8.62921 41.8966L30.4383 20.7199H22.5366L28.1014 4.65518Z" fill="#D36B6B"/>
</g>
<path d="M43.0166 37V10.5959H59.7007V15.4745H48.1559V21.9917H58.4345V26.7214H48.1931V37H43.0166ZM63.4833 37V18.6772H68.4364V37H63.4833ZM62.8874 12.6814C62.8874 11.8124 63.1854 11.08 63.7812 10.4841C64.3771 9.88827 65.0971 9.59034 65.9412 9.59034C66.8102 9.59034 67.5302 9.88827 68.1012 10.4841C68.6971 11.08 68.995 11.8124 68.995 12.6814C68.995 13.5007 68.6971 14.2083 68.1012 14.8041C67.5302 15.4 66.8102 15.6979 65.9412 15.6979C65.0971 15.6979 64.3771 15.4 63.7812 14.8041C63.1854 14.2083 62.8874 13.5007 62.8874 12.6814ZM79.8468 18.6772H83.5337V23.0717H79.8468V30.7434C79.8468 31.5379 80.0206 32.0966 80.3682 32.4193C80.7406 32.7172 81.2868 32.8662 82.0068 32.8662C82.3048 32.8662 82.6027 32.8538 82.9006 32.829C83.1985 32.8041 83.4096 32.7669 83.5337 32.7172V36.8138C83.3103 36.9131 82.9627 37.0124 82.491 37.1117C82.0441 37.211 81.4606 37.2607 80.7406 37.2607C78.953 37.2607 77.5379 36.7641 76.4951 35.771C75.4523 34.7779 74.931 33.3876 74.931 31.6V23.0717H71.6165V18.6772H72.5475C73.5158 18.6772 74.2234 18.4041 74.6703 17.8579C75.142 17.2869 75.3779 16.5917 75.3779 15.7724V13.2028H79.8468V18.6772ZM93.7396 18.6772H97.4265V23.0717H93.7396V30.7434C93.7396 31.5379 93.9134 32.0966 94.261 32.4193C94.6334 32.7172 95.1796 32.8662 95.8996 32.8662C96.1975 32.8662 96.4955 32.8538 96.7934 32.829C97.0913 32.8041 97.3024 32.7669 97.4265 32.7172V36.8138C97.203 36.9131 96.8555 37.0124 96.3837 37.1117C95.9368 37.211 95.3534 37.2607 94.6334 37.2607C92.8458 37.2607 91.4306 36.7641 90.3879 35.771C89.3451 34.7779 88.8237 33.3876 88.8237 31.6V23.0717H85.5093V18.6772H86.4403C87.4086 18.6772 88.1162 18.4041 88.563 17.8579C89.0348 17.2869 89.2706 16.5917 89.2706 15.7724V13.2028H93.7396V18.6772ZM109.682 33.0524C110.278 33.0524 110.862 32.9407 111.433 32.7172C112.004 32.4938 112.5 32.171 112.922 31.749C113.344 31.3021 113.68 30.7559 113.928 30.1103C114.201 29.4648 114.338 28.7076 114.338 27.8386C114.338 26.9697 114.201 26.2124 113.928 25.5669C113.68 24.9214 113.344 24.3876 112.922 23.9655C112.5 23.5186 112.004 23.1834 111.433 22.96C110.862 22.7366 110.278 22.6248 109.682 22.6248C109.087 22.6248 108.503 22.7366 107.932 22.96C107.361 23.1834 106.864 23.5186 106.442 23.9655C106.02 24.3876 105.673 24.9214 105.4 25.5669C105.151 26.2124 105.027 26.9697 105.027 27.8386C105.027 28.7076 105.151 29.4648 105.4 30.1103C105.673 30.7559 106.02 31.3021 106.442 31.749C106.864 32.171 107.361 32.4938 107.932 32.7172C108.503 32.9407 109.087 33.0524 109.682 33.0524ZM109.682 18.1186C111.048 18.1186 112.314 18.3669 113.481 18.8634C114.673 19.3352 115.691 20.0055 116.535 20.8745C117.404 21.7186 118.074 22.7366 118.546 23.9283C119.042 25.12 119.291 26.4234 119.291 27.8386C119.291 29.2538 119.042 30.5572 118.546 31.749C118.074 32.9159 117.404 33.9338 116.535 34.8028C115.691 35.6717 114.673 36.3545 113.481 36.851C112.314 37.3228 111.048 37.5586 109.682 37.5586C108.317 37.5586 107.038 37.3228 105.847 36.851C104.68 36.3545 103.662 35.6717 102.793 34.8028C101.949 33.9338 101.278 32.9159 100.782 31.749C100.31 30.5572 100.074 29.2538 100.074 27.8386C100.074 26.4234 100.31 25.12 100.782 23.9283C101.278 22.7366 101.949 21.7186 102.793 20.8745C103.662 20.0055 104.68 19.3352 105.847 18.8634C107.038 18.3669 108.317 18.1186 109.682 18.1186Z" fill="white"/>
<defs>
<clipPath id="clip0">
<rect width="37.2414" height="37.2414" fill="white" transform="translate(0 4.65518)"/>
</clipPath>
</defs>
</svg>
