<svg width="571" height="458" viewBox="0 0 571 458" fill="none" xmlns="http://www.w3.org/2000/svg">
<path d="M58.705 328.275C60.8726 341.075 63.4917 353.742 66.6076 366.364C66.8334 367.206 68.0978 366.852 67.9171 366.01C64.8013 353.432 62.137 340.721 60.0146 327.921C59.834 327.079 58.5244 327.434 58.705 328.275Z" fill="#E8E8E8"/>
<path d="M102.462 330.047C100.024 341.385 97.9468 352.856 96.2759 364.327C96.1405 365.168 97.45 365.523 97.5855 364.681C99.2563 353.166 101.334 341.739 103.772 330.401C103.953 329.56 102.643 329.205 102.462 330.047Z" fill="#E8E8E8"/>
<path d="M66.8788 366.807C76.7231 371.148 88.3285 371.546 97.3148 364.991C97.9921 364.504 97.3148 363.353 96.6374 363.84C88.1027 370.085 76.994 369.819 67.6013 365.656C66.7885 365.301 66.066 366.453 66.8788 366.807Z" fill="#E8E8E8"/>
<path d="M59.1111 328.142C62.4527 329.648 65.9298 329.958 69.5424 330.18C73.6065 330.401 77.6707 330.534 81.7348 330.578C89.231 330.711 96.998 331.065 104.088 328.187C104.901 327.877 104.539 326.592 103.726 326.902C97.0431 329.648 89.7277 329.382 82.638 329.294C78.8448 329.25 75.0967 329.117 71.3035 328.94C67.3748 328.762 63.401 328.674 59.7884 327.035C58.9756 326.636 58.2982 327.788 59.1111 328.142Z" fill="#E8E8E8"/>
<path d="M102.778 327.744C100.114 339.968 97.766 352.28 95.8243 364.637C95.6888 365.478 96.9984 365.833 97.1338 364.991C99.0756 352.634 101.379 340.322 104.088 328.098C104.269 327.257 102.959 326.902 102.778 327.744Z" fill="#E8E8E8"/>
<path d="M62.9048 348.914C65.8852 355.823 69.6784 362.378 74.2393 368.402C74.736 369.066 75.9101 368.402 75.4134 367.737C70.8525 361.67 67.0593 355.159 64.0789 348.25C63.7176 347.453 62.5887 348.161 62.9048 348.914Z" fill="#E8E8E8"/>
<path d="M59.6087 329.25C65.7049 343.378 73.5171 356.709 82.9098 368.977C83.4065 369.642 84.6258 368.977 84.0839 368.313C74.6912 356.045 66.879 342.714 60.7828 328.585C60.4667 327.788 59.2926 328.452 59.6087 329.25Z" fill="#E8E8E8"/>
<path d="M70.0396 329.825C75.4133 342.979 82.2772 355.425 90.5861 366.984C91.0829 367.693 92.2569 367.029 91.7602 366.32C83.4964 354.849 76.6325 342.492 71.3491 329.471C71.033 328.718 69.7235 329.028 70.0396 329.825Z" fill="#E8E8E8"/>
<path d="M78.8452 330.091C83.5867 341.163 89.3668 351.793 96.0952 361.847C96.592 362.555 97.7661 361.891 97.2693 361.182C90.5861 351.217 84.8511 340.721 80.1548 329.737C79.8387 328.984 78.5291 329.338 78.8452 330.091Z" fill="#E8E8E8"/>
<path d="M87.1538 331.065C90.0439 338.108 93.5662 344.84 97.7206 351.262C98.1722 351.97 99.3463 351.306 98.8947 350.597C94.7854 344.308 91.3083 337.665 88.4634 330.755C88.1473 329.914 86.8377 330.268 87.1538 331.065Z" fill="#E8E8E8"/>
<path d="M94.1087 330.445C95.7795 334.299 97.6761 338.019 99.8436 341.606C100.295 342.359 101.469 341.695 101.018 340.942C98.8502 337.355 96.9536 333.634 95.2828 329.781C94.9667 328.984 93.7926 329.648 94.1087 330.445Z" fill="#E8E8E8"/>
<path d="M99.6176 329.382C100.25 330.844 100.972 332.261 101.875 333.59C102.372 334.299 103.546 333.634 103.05 332.926C102.237 331.685 101.514 330.401 100.927 329.028C100.566 328.231 99.2563 328.585 99.6176 329.382Z" fill="#E8E8E8"/>
<path d="M77.4904 328.984C76.813 324.599 76.6324 320.17 76.8582 315.697C76.5873 315.918 76.2712 316.14 76.0002 316.317C76.9485 316.671 78.7097 317.734 79.7483 317.247C80.6514 316.804 80.4708 315.475 80.516 314.634C80.6966 312.198 80.9675 310.028 82.2771 307.902C83.406 306.086 84.8962 304.492 86.2509 302.809C91.6698 296.165 96.6371 289.167 101.198 281.904C100.792 281.904 100.43 281.904 100.024 281.904C102.282 285.757 103.049 290.895 103.546 295.279C104.043 299.62 103.862 304.004 102.643 308.212C101.514 312.109 99.6626 315.741 97.4499 319.151C95.2372 322.473 92.6181 326.194 89.4119 328.674C88.7346 329.205 89.6829 330.135 90.3602 329.604C93.747 326.991 96.5468 323.049 98.8498 319.506C101.198 315.918 103.095 312.021 104.178 307.902C105.352 303.517 105.443 298.955 104.856 294.482C104.269 290.097 103.501 285.137 101.243 281.284C100.972 280.841 100.34 280.885 100.069 281.284C95.7339 288.193 91.0376 294.881 85.8897 301.258C83.8576 303.783 81.2836 306.263 80.1095 309.319C79.5677 310.692 79.387 312.109 79.2967 313.571C79.2515 313.97 79.4322 315.785 79.0709 316.007C78.8 316.184 76.7679 315.21 76.4066 315.077C75.9551 314.944 75.5938 315.298 75.5487 315.697C75.2777 320.259 75.5487 324.776 76.226 329.294C76.3163 330.18 77.6259 329.825 77.4904 328.984Z" fill="#E8E8E8"/>
<path d="M49.8091 285.89C51.1187 293.951 53.1508 301.923 55.9054 309.629C58.389 316.538 61.2791 323.049 66.2915 328.541C66.8785 329.161 67.8268 328.231 67.2398 327.611C62.0016 321.897 59.1115 314.9 56.6279 307.68C54.1442 300.461 52.2928 293.021 51.0735 285.491C50.9832 284.694 49.6737 285.048 49.8091 285.89Z" fill="#E8E8E8"/>
<path d="M49.9445 285.048C52.6088 287.484 55.9053 288.813 59.4727 289.3C60.7822 289.477 64.8012 289.035 65.3431 290.363C65.6141 291.028 65.0722 292.843 64.9819 293.596C64.8464 294.925 64.7109 296.298 64.5303 297.627C64.4851 298.114 64.9819 298.335 65.3883 298.247C66.9688 298.025 68.5493 297.804 70.1298 297.582C72.207 297.317 73.1553 298.734 74.6003 300.018C77.084 302.277 79.5225 304.58 82.0061 306.839C82.6383 307.415 83.5866 306.485 82.9544 305.909C79.7934 302.986 76.7227 299.664 73.2908 297.007C71.0781 295.279 67.6461 296.608 65.027 296.962C65.298 297.184 65.6141 297.405 65.885 297.582C66.156 295.191 66.9688 292.268 66.6978 289.876C66.5624 288.724 65.7495 288.37 64.6658 288.282C59.563 287.883 54.8666 287.794 50.8477 284.118C50.2606 283.498 49.2672 284.428 49.9445 285.048Z" fill="#E8E8E8"/>
<path d="M50.0353 284.34C50.803 300.727 58.4345 315.564 66.8789 329.382C67.3305 330.135 68.5046 329.427 68.053 328.718C59.7441 315.077 52.1577 300.506 51.39 284.34C51.3448 283.454 49.9901 283.454 50.0353 284.34Z" fill="#E8E8E8"/>
<path d="M59.6988 327.788C61.8212 327.877 63.8984 327.832 66.0208 327.611C66.8788 327.522 66.8788 326.194 66.0208 326.282C63.8984 326.504 61.8212 326.548 59.6988 326.459C58.7957 326.415 58.7957 327.744 59.6988 327.788Z" fill="#E8E8E8"/>
<path d="M61.3242 328.364C63.1305 328.319 64.8916 328.629 66.5624 329.294C67.3752 329.604 68.0526 328.497 67.2398 328.142C65.3432 327.345 63.4014 326.946 61.3242 326.991C60.4662 327.079 60.4662 328.408 61.3242 328.364Z" fill="#E8E8E8"/>
<path d="M89.5025 330.18C93.9731 328.364 98.6243 327.655 103.456 328.142C104.314 328.231 104.314 326.902 103.456 326.814C98.5339 326.371 93.7021 327.035 89.1412 328.939C88.3736 329.205 88.6897 330.49 89.5025 330.18Z" fill="#E8E8E8"/>
<path d="M92.483 329.648C95.2827 328.541 98.3534 329.072 101.243 328.585C102.101 328.452 101.74 327.168 100.882 327.301C97.947 327.788 94.9215 327.212 92.1217 328.364C91.354 328.718 91.7153 330.003 92.483 329.648Z" fill="#E8E8E8"/>
<path d="M92.8437 327.788C96.2756 328.142 99.7076 328.187 103.185 327.921C104.043 327.877 104.043 326.548 103.185 326.592C99.7076 326.814 96.2756 326.769 92.8437 326.459C91.9857 326.371 91.9857 327.699 92.8437 327.788Z" fill="#E8E8E8"/>
<path d="M100.521 285.181C97.2241 301.17 84.3994 313.305 80.9223 329.25C80.7869 329.87 81.7803 330.135 81.9158 329.515C85.3929 313.571 98.2176 301.436 101.514 285.447C101.65 284.827 100.656 284.561 100.521 285.181Z" fill="#E8E8E8"/>
<path d="M49.7185 284.118C50.8474 294.925 53.9632 305.333 59.0208 314.988C59.3369 315.564 60.1949 315.077 59.8788 314.501C54.9567 305.023 51.8408 294.748 50.7571 284.118C50.6668 283.498 49.6281 283.454 49.7185 284.118Z" fill="#E8E8E8"/>
<path d="M50.5767 284.428C54.1441 287.174 58.2083 288.946 62.724 289.61C63.3562 289.699 63.6271 288.724 62.9949 288.636C58.705 288.016 54.7311 286.377 51.2992 283.72C50.7573 283.321 50.0348 284.03 50.5767 284.428Z" fill="#E8E8E8"/>
<path d="M84.8514 303.65C86.0707 307.548 86.6125 311.489 86.4319 315.52C86.3868 316.14 87.4254 316.14 87.4705 315.52C87.606 311.357 87.0641 307.326 85.8449 303.384C85.6642 302.764 84.6708 303.03 84.8514 303.65Z" fill="#E8E8E8"/>
<path d="M100.115 282.923C100.656 284.694 100.521 286.51 99.6629 288.193C99.3468 288.769 100.25 289.256 100.521 288.68C101.514 286.776 101.695 284.694 101.063 282.657C100.927 282.037 99.9339 282.303 100.115 282.923Z" fill="#E8E8E8"/>
<path d="M91.8504 306.972C96.4113 303.562 100.972 300.151 104.585 295.678C104.991 295.191 104.269 294.482 103.862 294.969C100.34 299.354 95.8694 302.764 91.3537 306.086C90.857 306.485 91.3537 307.37 91.8504 306.972Z" fill="#E8E8E8"/>
<path d="M50.8475 286.156C54.6407 292.843 58.7952 299.265 63.3561 305.466C67.646 311.312 73.11 316.76 75.4582 323.669C75.684 324.289 76.6323 324.023 76.4516 323.403C74.1035 316.627 68.9556 311.312 64.7108 305.599C59.9693 299.221 55.6342 292.533 51.7055 285.624C51.4346 285.093 50.5314 285.624 50.8475 286.156Z" fill="#E8E8E8"/>
<path d="M60.4664 288.946C60.1955 293.464 60.6019 297.937 61.6405 302.321C61.776 302.941 62.7694 302.676 62.634 302.056C61.5953 297.715 61.2341 293.375 61.505 288.946C61.5502 288.282 60.5116 288.282 60.4664 288.946Z" fill="#E8E8E8"/>
<path d="M74.1486 300.151C72.7939 305.245 71.9811 310.382 71.665 315.608C71.6198 316.228 72.6585 316.228 72.7036 315.608C73.0197 310.471 73.8325 305.377 75.1421 300.417C75.3227 299.797 74.3293 299.531 74.1486 300.151Z" fill="#E8E8E8"/>
<path d="M60.782 318.576C62.5431 319.772 65.3881 320.037 67.4653 320.303C69.678 320.613 71.8004 320.569 73.9228 320.082C74.555 319.949 74.284 318.974 73.6518 319.107C71.3488 319.594 69.1813 319.55 66.8782 319.196C65.1623 318.93 62.6786 318.664 61.2787 317.69C60.7369 317.38 60.2401 318.221 60.782 318.576Z" fill="#E8E8E8"/>
<path d="M470.855 364.46C495.601 364.46 520.302 364.46 545.048 364.46C545.681 364.46 545.726 363.441 545.048 363.441C520.302 363.441 495.601 363.441 470.855 363.441C470.178 363.441 470.178 364.46 470.855 364.46Z" fill="#E8E8E8"/>
<path d="M490.905 363.042C489.596 363.441 486.886 349.977 486.751 348.737C486.164 343.865 486.299 338.905 487.112 334.033C486.796 334.033 486.48 334.033 486.119 334.033C487.022 336.513 488.512 338.417 490.68 339.968C491.221 340.322 491.718 339.48 491.176 339.126C489.235 337.753 487.88 335.982 487.067 333.811C486.932 333.413 486.164 333.28 486.074 333.811C485.08 339.702 485.08 345.725 486.119 351.616C486.661 354.716 487.473 357.728 488.602 360.695C488.964 361.67 489.551 364.593 491.176 364.061C491.808 363.795 491.538 362.821 490.905 363.042Z" fill="#E8E8E8"/>
<path d="M491.447 338.949C490.408 333.856 492.124 328.94 494.292 324.333C496.233 320.214 498.446 316.273 500.704 312.331C505.084 304.669 509.6 297.007 512.806 288.769C512.49 288.769 512.174 288.769 511.813 288.769C514.432 296.431 516.148 304.314 516.825 312.375C517.141 316.317 517.186 320.303 517.096 324.245C517.051 326.194 517.231 328.364 516.825 330.268C516.373 332.527 514.612 333.723 512.761 334.874C512.4 335.096 512.445 335.494 512.761 335.716C513.348 336.159 513.845 336.247 514.612 336.292C515.019 336.292 515.561 336.159 515.967 336.247C517.999 336.734 517.683 338.285 517.548 339.525C517.231 342.492 516.644 345.46 515.832 348.338C514.206 353.919 511.677 359.189 508.336 363.973C507.974 364.504 508.832 364.991 509.194 364.46C513.167 358.746 516.012 352.369 517.548 345.637C517.909 344.131 518.18 342.581 518.36 341.031C518.541 339.746 518.947 338.152 518.496 336.867C517.548 334.254 514.974 336.159 513.258 334.874C513.258 335.14 513.258 335.45 513.258 335.716C515.832 334.077 517.728 332.438 517.909 329.294C518.18 324.466 518.225 319.594 517.954 314.811C517.457 305.82 515.696 296.962 512.761 288.459C512.58 287.972 511.948 288.016 511.767 288.459C508.245 297.627 503.007 306.042 498.175 314.59C494.066 321.897 488.647 330.445 490.408 339.17C490.589 339.835 491.582 339.569 491.447 338.949Z" fill="#E8E8E8"/>
<path d="M518.361 316.538C519.58 314.191 520.799 311.844 522.018 309.452C522.605 308.345 523.192 307.238 523.734 306.086C524.005 305.599 524.231 305.112 524.502 304.58C524.683 304.226 524.863 303.872 525.044 303.562C525.405 302.72 526.173 302.499 527.392 302.853C527.392 303.252 527.979 303.562 528.25 303.207C534.301 296.254 539.494 288.68 543.829 280.575C543.513 280.487 543.197 280.398 542.881 280.309C542.745 286.599 542.655 292.932 542.971 299.221C543.107 302.1 543.378 305.023 543.784 307.902C543.965 309.231 544.507 310.781 544.461 312.154C544.823 312.995 544.597 313.704 543.739 314.235C543.468 315.121 542.881 315.653 542.023 315.785C541.255 316.14 540.307 316.317 539.494 316.494C538.997 316.627 538.997 317.336 539.494 317.468C543.558 318.487 542.158 323.536 541.571 326.371C541.255 327.921 541.165 329.648 539.133 329.781C538.32 329.825 537.823 329.56 537.011 329.781C536.649 329.87 536.559 330.224 536.694 330.534C537.056 331.375 537.643 331.375 538.23 331.951C539.72 333.368 538.636 336.38 538.23 338.019C537.507 341.075 536.559 344.042 535.385 346.965C533.037 352.9 529.831 358.392 525.902 363.441C525.495 363.973 526.399 364.46 526.76 363.928C531.05 358.392 534.482 352.324 536.875 345.77C538.094 342.492 539.043 339.082 539.72 335.672C539.901 334.697 540.442 333.191 539.991 332.217C539.494 331.11 538.004 331.065 537.507 329.958C537.417 330.224 537.327 330.445 537.191 330.711C538.546 330.357 540.307 331.508 541.436 330.313C542.61 329.117 542.565 326.149 542.881 324.599C543.468 321.499 543.468 317.424 539.675 316.494C539.675 316.804 539.675 317.114 539.675 317.468C541.617 316.937 545.455 316.538 545.681 314.014C545.771 312.774 545.274 311.401 545.048 310.205C544.687 307.991 544.416 305.776 544.191 303.517C543.513 295.811 543.649 288.06 543.784 280.309C543.784 279.822 543.062 279.601 542.836 280.044C538.591 288.06 533.398 295.589 527.437 302.454C527.708 302.587 528.024 302.676 528.295 302.809C528.205 300.107 525.179 301.17 524.186 302.72C521.522 306.839 519.58 311.622 517.322 315.963C517.187 316.583 518.044 317.114 518.361 316.538Z" fill="#E8E8E8"/>
<path d="M542.249 282.17C537.598 310.692 523.509 336.469 514.432 363.751C514.251 364.371 515.2 364.637 515.425 364.017C524.457 336.779 538.591 311.002 543.242 282.435C543.332 281.815 542.384 281.55 542.249 282.17Z" fill="#E8E8E8"/>
<path d="M522.425 306.352C522.831 315.918 523.825 325.441 525.27 334.919C525.36 335.539 526.353 335.273 526.263 334.653C524.818 325.263 523.87 315.83 523.463 306.352C523.418 305.687 522.38 305.687 522.425 306.352Z" fill="#E8E8E8"/>
<path d="M533.037 318.443C536.243 313.482 540.759 309.585 544.507 305.067C544.913 304.58 544.191 303.872 543.784 304.359C539.991 308.965 535.43 312.907 532.179 317.956C531.772 318.487 532.675 318.974 533.037 318.443Z" fill="#E8E8E8"/>
<path d="M511.452 290.452C511.136 315.475 497.679 338.639 499.395 363.84C499.44 364.46 500.433 364.46 500.433 363.84C498.717 338.639 512.174 315.475 512.49 290.452C512.49 289.787 511.452 289.787 511.452 290.452Z" fill="#E8E8E8"/>
<path d="M494.156 322.517C495.556 330.002 497.723 337.31 500.613 344.352C500.839 344.928 501.833 344.662 501.607 344.087C498.717 337.044 496.549 329.737 495.149 322.252C495.014 321.587 494.066 321.853 494.156 322.517Z" fill="#E8E8E8"/>
<path d="M505.175 328.275C509.645 323.27 514.838 317.956 517.638 311.844C517.909 311.268 517.051 310.736 516.78 311.357C513.98 317.38 508.878 322.65 504.452 327.567C504.046 328.054 504.768 328.762 505.175 328.275Z" fill="#E8E8E8"/>
<path d="M505.219 302.587C505.897 306.573 506.845 310.515 507.929 314.412C508.109 315.033 509.103 314.767 508.922 314.147C507.793 310.249 506.89 306.308 506.213 302.321C506.077 301.701 505.129 301.967 505.219 302.587Z" fill="#E8E8E8"/>
<path d="M517.006 359.278C520.98 356.798 525.044 354.406 528.927 351.749C532.043 349.623 535.52 347.32 537.462 344.087C537.778 343.511 536.92 343.024 536.604 343.599C534.527 347.098 530.463 349.578 527.121 351.793C523.644 354.096 520.076 356.222 516.554 358.436C515.922 358.746 516.464 359.632 517.006 359.278Z" fill="#E8E8E8"/>
<path d="M46.9646 366.674C54.8671 366.674 62.7696 366.674 70.6721 366.674C71.3043 366.674 71.3495 365.656 70.6721 365.656C62.7696 365.656 54.8671 365.656 46.9646 365.656C46.2872 365.7 46.2872 366.674 46.9646 366.674Z" fill="#E8E8E8"/>
<path d="M96.0498 367.029C102.191 367.029 108.287 367.029 114.429 367.029C115.061 367.029 115.106 366.01 114.429 366.01C108.287 366.01 102.191 366.01 96.0498 366.01C95.4176 366.01 95.4176 367.029 96.0498 367.029Z" fill="#E8E8E8"/>
<path d="M281.917 74.6283C281.917 105.764 281.917 136.9 281.917 168.035C281.917 176.849 281.917 185.662 281.917 194.476C281.917 195.096 282.956 195.14 282.956 194.476C282.956 163.34 282.956 132.205 282.956 101.069C282.956 92.2556 282.956 83.4419 282.956 74.6283C282.91 74.0082 281.917 74.0082 281.917 74.6283Z" fill="#E8E8E8"/>
<path d="M282.504 75.1155C315.966 75.1155 349.427 75.1155 382.934 75.1155C392.372 75.1155 401.855 75.1155 411.293 75.1155C411.925 75.1155 411.97 74.0968 411.293 74.0968C377.831 74.0968 344.37 74.0968 310.863 74.0968C301.425 74.0968 291.942 74.0968 282.504 74.0968C281.872 74.1411 281.872 75.1155 282.504 75.1155Z" fill="#E8E8E8"/>
<path d="M282.821 195.716C315.831 195.716 348.841 195.716 381.851 195.716C391.153 195.716 400.455 195.716 409.758 195.716C410.39 195.716 410.435 194.698 409.758 194.698C376.748 194.698 343.738 194.698 310.728 194.698C301.426 194.698 292.123 194.698 282.821 194.698C282.189 194.742 282.189 195.716 282.821 195.716Z" fill="#E8E8E8"/>
<path d="M410.796 74.9383C410.796 105.897 410.796 136.855 410.796 167.769C410.796 176.627 410.796 185.441 410.796 194.299C410.796 194.919 411.834 194.963 411.834 194.299C411.834 163.34 411.834 132.382 411.834 101.468C411.834 92.6099 411.834 83.7962 411.834 74.9383C411.834 74.3183 410.796 74.274 410.796 74.9383Z" fill="#E8E8E8"/>
<path d="M409.532 195.716C410.299 195.761 411.112 195.45 411.609 194.875C412.015 194.388 411.338 193.679 410.886 194.166C410.525 194.565 410.074 194.742 409.532 194.698C408.9 194.698 408.9 195.672 409.532 195.716Z" fill="#E8E8E8"/>
<path d="M282.323 144.03C315.469 144.03 348.614 144.03 381.759 144.03C391.197 144.03 400.68 144.03 410.118 144.03C410.75 144.03 410.796 143.012 410.118 143.012C376.973 143.012 343.827 143.012 310.682 143.012C301.244 143.012 291.761 143.012 282.323 143.012C281.691 143.056 281.691 144.03 282.323 144.03Z" fill="#E8E8E8"/>
<path d="M289.007 131.142C326.217 131.142 363.426 131.142 400.591 131.142C401.223 131.142 401.268 130.123 400.591 130.123C363.381 130.123 326.171 130.123 289.007 130.123C288.33 130.168 288.33 131.142 289.007 131.142Z" fill="#E8E8E8"/>
<path d="M288.736 116.836C324.816 116.836 360.897 116.836 396.978 116.836C397.61 116.836 397.655 115.818 396.978 115.818C360.897 115.818 324.816 115.818 288.736 115.818C288.104 115.818 288.104 116.836 288.736 116.836Z" fill="#E8E8E8"/>
<path d="M295.465 101.069C327.165 101.069 358.865 101.069 390.52 101.069C391.153 101.069 391.198 100.051 390.52 100.051C358.82 100.051 327.12 100.051 295.465 100.051C294.787 100.095 294.787 101.069 295.465 101.069Z" fill="#E8E8E8"/>
<path d="M305.263 83.9291C334.299 83.9291 363.381 83.9291 392.417 83.9291C393.049 83.9291 393.094 82.9105 392.417 82.9105C363.381 82.9105 334.299 82.9105 305.263 82.9105C304.631 82.9548 304.631 83.9291 305.263 83.9291Z" fill="#E8E8E8"/>
<path d="M284.898 144.03C284.898 159.62 284.898 175.21 284.898 190.756C284.898 191.376 285.937 191.42 285.937 190.756C285.937 175.166 285.937 159.576 285.937 144.03C285.891 143.41 284.898 143.41 284.898 144.03Z" fill="#E8E8E8"/>
<path d="M285.394 191.774C316.914 191.774 348.479 191.774 379.998 191.774C389.03 191.774 398.016 191.774 407.048 191.774C407.68 191.774 407.725 190.756 407.048 190.756C375.528 190.756 343.963 190.756 312.443 190.756C303.412 190.756 294.426 190.756 285.394 190.756C284.762 190.756 284.762 191.774 285.394 191.774Z" fill="#E8E8E8"/>
<path d="M407.273 144.96C407.273 160.24 407.273 175.476 407.273 190.756C407.273 191.376 408.312 191.42 408.312 190.756C408.312 175.476 408.312 160.24 408.312 144.96C408.267 144.34 407.273 144.34 407.273 144.96Z" fill="#E8E8E8"/>
<path d="M285.981 173.616C285.801 170.515 288.781 168.567 291.626 170.161C291.852 170.294 292.168 170.205 292.303 169.984C293.071 168.655 292.981 167.415 293.161 165.954C293.342 164.669 293.793 163.473 295.284 163.296C296.006 163.208 296.729 163.562 297.451 163.429C298.49 163.208 298.896 162.588 299.393 161.702C300.296 159.974 300.838 158.424 302.464 157.184C306.483 153.995 310.998 157.273 312.443 161.347C313.798 165.245 312.805 169.674 312.759 173.704C312.759 174.059 313.076 174.236 313.392 174.191C319.804 172.907 323.191 181.189 317.591 184.6C317.23 184.821 317.275 185.397 317.727 185.53C320.03 186.238 323.1 188.231 321.294 191.022C320.933 191.553 321.836 192.084 322.152 191.509C324.32 188.187 320.978 185.485 317.998 184.555C318.043 184.865 318.088 185.175 318.133 185.485C320.933 183.758 322.378 180.303 321.113 177.203C319.849 174.103 316.327 172.597 313.121 173.261C313.346 173.439 313.527 173.571 313.753 173.749C313.798 169.187 315.017 164.138 312.85 159.842C311.405 156.918 308.379 154.394 304.857 155.014C303.276 155.28 301.877 156.21 300.793 157.361C299.438 158.779 298.67 162.278 296.638 162.543C295.013 162.765 293.974 162.056 292.89 163.651C291.671 165.422 292.439 167.725 291.4 169.585C291.626 169.541 291.852 169.452 292.077 169.408C288.645 167.504 284.672 169.807 284.897 173.749C284.988 174.28 286.026 174.28 285.981 173.616Z" fill="#E8E8E8"/>
<path d="M342.383 143.587C342.383 159.399 342.383 175.21 342.383 191.022C342.383 191.642 343.421 191.686 343.421 191.022C343.421 175.21 343.421 159.399 343.421 143.587C343.376 142.923 342.383 142.923 342.383 143.587Z" fill="#E8E8E8"/>
<path d="M345.499 143.809C345.499 159.532 345.499 175.299 345.499 191.022C345.499 191.642 346.537 191.686 346.537 191.022C346.537 175.299 346.537 159.532 346.537 143.809C346.492 143.189 345.499 143.144 345.499 143.809Z" fill="#E8E8E8"/>
<path d="M376.251 190.8C375.302 190.047 374.219 189.161 373.902 187.921C373.315 185.485 375.031 185.175 376.431 184.29C377.244 183.758 378.057 183.138 378.238 182.164C378.463 181.056 377.696 180.215 377.199 179.285C376.025 176.937 375.709 173.793 377.967 171.888C379.999 170.161 384.74 172.154 385.869 169.098C386.185 168.168 385.779 167.504 385.417 166.707C384.424 164.403 383.702 162.145 383.927 159.62C384.063 157.804 384.334 157.007 386.456 156.741C387.359 156.608 387.133 156.963 387.901 156.431C388.127 156.254 388.262 155.944 388.443 155.767C389.617 154.615 390.114 153.464 392.01 153.42C397.023 153.331 396.978 159.93 397.203 163.252C397.339 164.935 397.52 169.231 400.003 169.408C401.042 169.497 401.268 168.7 401.719 167.991C403.074 165.998 404.609 164.758 407.183 164.935C407.815 164.979 407.815 164.005 407.183 163.916C404.971 163.739 402.758 164.625 401.448 166.441C401.493 166.396 400.906 167.459 400.861 167.459C400.319 167.637 398.919 166.707 398.694 166.352C398.197 165.511 398.287 164.138 398.197 163.208C398.107 161.746 398.107 160.24 397.881 158.779C397.52 156.52 396.481 154.04 394.313 152.932C392.417 151.958 390.023 152.357 388.533 153.863C388.172 154.261 387.946 154.925 387.54 155.235C386.908 155.678 385.869 155.368 385.147 155.59C384.289 155.856 383.792 156.387 383.385 157.184C382.211 159.576 382.753 162.942 383.656 165.334C383.837 165.865 384.379 166.618 384.469 167.194C384.379 167.592 384.289 167.991 384.198 168.39C384.334 169.63 383.747 170.117 382.392 169.94C382.031 169.984 381.669 169.94 381.353 169.94C380.044 169.94 378.87 170.028 377.741 170.781C375.754 172.11 374.941 174.546 375.257 176.805C375.483 178.443 376.386 179.462 376.883 180.968C377.696 183.359 374.76 183.669 373.496 185.087C371.464 187.346 373.496 190.091 375.393 191.642C376.025 191.907 376.747 191.199 376.251 190.8Z" fill="#E8E8E8"/>
<path d="M102.643 141.063C102.643 139.557 102.643 138.095 102.643 136.59C102.643 135.969 101.604 135.925 101.604 136.59C101.604 138.095 101.604 139.557 101.604 141.063C101.604 141.727 102.643 141.727 102.643 141.063Z" fill="#E8E8E8"/>
<path d="M102.101 136.634C125.899 136.634 149.697 136.634 173.495 136.634C174.127 136.634 174.172 135.615 173.495 135.615C149.697 135.615 125.899 135.615 102.101 135.615C101.469 135.615 101.469 136.634 102.101 136.634Z" fill="#E8E8E8"/>
<path d="M103.637 141.816C126.938 141.816 150.239 141.816 173.54 141.816C174.172 141.816 174.218 140.797 173.54 140.797C150.239 140.797 126.938 140.797 103.637 140.797C102.96 140.797 102.96 141.816 103.637 141.816Z" fill="#E8E8E8"/>
<path d="M173.495 136.368C173.495 137.918 173.495 139.513 173.495 141.063C173.495 141.683 174.534 141.727 174.534 141.063C174.534 139.513 174.534 137.918 174.534 136.368C174.534 135.704 173.495 135.704 173.495 136.368Z" fill="#E8E8E8"/>
<path d="M107.475 135.969C107.475 118.209 107.475 100.449 107.475 82.689C107.475 82.069 106.437 82.0247 106.437 82.689C106.437 100.449 106.437 118.209 106.437 135.969C106.437 136.634 107.475 136.634 107.475 135.969Z" fill="#E8E8E8"/>
<path d="M107.339 83.2205C110.952 83.2205 114.519 83.2205 118.132 83.2205C118.764 83.2205 118.809 82.2018 118.132 82.2018C114.519 82.2018 110.952 82.2018 107.339 82.2018C106.707 82.2018 106.707 83.2205 107.339 83.2205Z" fill="#E8E8E8"/>
<path d="M117.229 83.4419C117.229 100.892 117.229 118.342 117.229 135.792C117.229 136.412 118.267 136.457 118.267 135.792C118.267 118.342 118.267 100.892 118.267 83.4419C118.267 82.8219 117.229 82.8219 117.229 83.4419Z" fill="#E8E8E8"/>
<path d="M117.951 93.0528C121.97 93.0528 126.035 93.0528 130.054 93.0528C130.686 93.0528 130.731 92.0341 130.054 92.0341C126.035 92.0341 121.97 92.0341 117.951 92.0341C117.274 92.0341 117.274 93.0528 117.951 93.0528Z" fill="#E8E8E8"/>
<path d="M129.15 92.7428C129.15 106.783 129.15 120.822 129.15 134.862C129.15 135.482 130.189 135.527 130.189 134.862C130.189 120.822 130.189 106.783 130.189 92.7428C130.189 92.0784 129.15 92.0784 129.15 92.7428Z" fill="#E8E8E8"/>
<path d="M110.365 88.9781C110.59 90.484 110.636 91.9898 110.455 93.4957C110.365 94.1157 111.403 94.1157 111.494 93.4957C111.674 91.9012 111.629 90.3068 111.358 88.7124C111.268 88.0924 110.274 88.3581 110.365 88.9781Z" fill="#E8E8E8"/>
<path d="M112.487 88.801C112.803 90.3511 112.893 91.9012 112.893 93.4957C112.893 94.1157 113.887 94.1157 113.932 93.4957C113.977 91.8127 113.797 90.174 113.48 88.5352C113.345 87.9152 112.397 88.1809 112.487 88.801Z" fill="#E8E8E8"/>
<path d="M121.022 100.538C122.874 100.803 124.771 101.069 126.667 101.202C127.299 101.246 127.299 100.272 126.667 100.183C124.861 100.051 123.1 99.8291 121.293 99.5634C120.661 99.4748 120.345 100.405 121.022 100.538Z" fill="#E8E8E8"/>
<path d="M122.873 103.638C124.138 103.549 125.402 103.461 126.666 103.417C127.299 103.372 127.299 102.398 126.666 102.398C125.402 102.487 124.138 102.575 122.873 102.619C122.196 102.708 122.196 103.682 122.873 103.638Z" fill="#E8E8E8"/>
<path d="M134.163 135.261C134.163 132.781 134.163 130.3 134.163 127.82C134.163 127.2 133.124 127.156 133.124 127.82C133.124 130.3 133.124 132.781 133.124 135.261C133.124 135.881 134.163 135.881 134.163 135.261Z" fill="#E8E8E8"/>
<path d="M134.208 128.485C145.497 128.485 156.787 128.485 168.076 128.485C168.708 128.485 168.753 127.466 168.076 127.466C156.787 127.466 145.497 127.466 134.208 127.466C133.576 127.51 133.576 128.485 134.208 128.485Z" fill="#E8E8E8"/>
<path d="M167.58 128.352C167.58 130.876 167.58 133.445 167.58 135.969C167.58 136.59 168.618 136.634 168.618 135.969C168.618 133.445 168.618 130.876 168.618 128.352C168.573 127.732 167.58 127.732 167.58 128.352Z" fill="#E8E8E8"/>
<path d="M140.982 127.466C140.982 125.783 140.982 124.144 140.982 122.461C140.982 121.841 139.943 121.797 139.943 122.461C139.943 124.144 139.943 125.783 139.943 127.466C139.943 128.086 140.982 128.086 140.982 127.466Z" fill="#E8E8E8"/>
<path d="M140.44 122.373C150.194 122.373 159.993 122.373 169.747 122.373C170.379 122.373 170.424 121.354 169.747 121.354C159.993 121.354 150.194 121.354 140.44 121.354C139.808 121.398 139.808 122.373 140.44 122.373Z" fill="#E8E8E8"/>
<path d="M169.476 121.885C169.476 124.056 169.476 126.226 169.476 128.396C169.476 129.016 170.515 129.06 170.515 128.396C170.515 126.226 170.515 124.056 170.515 121.885C170.47 121.221 169.476 121.221 169.476 121.885Z" fill="#E8E8E8"/>
<path d="M168.618 128.927C169.024 128.795 169.43 128.706 169.837 128.795C170.469 128.927 170.74 127.953 170.108 127.82C169.521 127.687 168.889 127.732 168.347 127.953C168.076 128.042 167.895 128.307 167.985 128.573C168.076 128.795 168.347 129.016 168.618 128.927Z" fill="#E8E8E8"/>
<path d="M146.988 122.373C147.575 124.144 147.755 126.004 147.484 127.864C147.394 128.485 148.387 128.75 148.478 128.13C148.794 126.093 148.613 124.1 147.981 122.107C147.755 121.487 146.807 121.753 146.988 122.373Z" fill="#E8E8E8"/>
<path d="M152.18 123.125C152.812 123.125 152.858 122.107 152.18 122.107C151.548 122.107 151.548 123.125 152.18 123.125Z" fill="#E8E8E8"/>
<path d="M152.497 122.151L152.452 122.107C152.452 122.328 152.452 122.594 152.452 122.815C152.497 122.771 152.497 122.771 152.542 122.727C152.316 122.771 152.136 122.771 151.91 122.815C151.774 122.638 151.774 122.727 151.91 123.081C151.955 123.303 152 123.48 152 123.701C152.045 124.144 152.045 124.587 152.045 125.03C152 125.96 151.819 126.802 151.503 127.687C151.278 128.307 152.271 128.573 152.497 127.953C152.948 126.757 153.129 125.517 153.084 124.277C153.039 123.568 153.084 122.373 152.406 121.93C152.226 121.841 151.91 121.841 151.774 122.018C151.729 122.063 151.729 122.063 151.684 122.107C151.503 122.328 151.458 122.594 151.684 122.815L151.729 122.86C152.271 123.303 152.994 122.594 152.497 122.151Z" fill="#E8E8E8"/>
<path d="M118.177 108.156C121.79 108.953 125.402 109.086 129.105 108.554C129.737 108.466 129.466 107.491 128.834 107.58C125.357 108.067 121.88 107.934 118.448 107.181C117.771 107.048 117.5 108.023 118.177 108.156Z" fill="#E8E8E8"/>
<path d="M100.973 65.6818C127.841 65.6818 154.71 65.6818 181.623 65.6818C182.256 65.6818 182.301 64.6631 181.623 64.6631C154.755 64.6631 127.886 64.6631 100.973 64.6631C100.34 64.6631 100.34 65.6818 100.973 65.6818Z" fill="#E8E8E8"/>
<path d="M101.469 64.9288C101.469 63.9102 101.469 62.8472 101.469 61.8286C101.469 61.2085 100.431 61.1642 100.431 61.8286C100.431 62.8472 100.431 63.9102 100.431 64.9288C100.476 65.5932 101.469 65.5932 101.469 64.9288Z" fill="#E8E8E8"/>
<path d="M100.747 62.0943C127.615 62.0943 154.484 62.0943 181.398 62.0943C182.03 62.0943 182.075 61.0756 181.398 61.0756C154.529 61.0756 127.66 61.0756 100.747 61.0756C100.069 61.1199 100.069 62.0943 100.747 62.0943Z" fill="#E8E8E8"/>
<path d="M181.081 61.8286C181.171 62.7587 181.262 63.733 181.397 64.6631C181.442 65.2832 182.481 65.2832 182.436 64.6631C182.345 63.733 182.255 62.7587 182.12 61.8286C182.029 61.2085 181.036 61.2085 181.081 61.8286Z" fill="#E8E8E8"/>
<path d="M107.475 60.8542C107.475 52.572 107.475 44.3341 107.475 36.052C107.475 35.4319 106.437 35.3876 106.437 36.052C106.437 44.3341 106.437 52.572 106.437 60.8542C106.437 61.4742 107.475 61.4742 107.475 60.8542Z" fill="#E8E8E8"/>
<path d="M106.933 36.3177C108.83 36.3177 110.772 36.3177 112.668 36.3177C113.3 36.3177 113.346 35.2991 112.668 35.2991C110.772 35.2991 108.83 35.2991 106.933 35.2991C106.301 35.3433 106.301 36.3177 106.933 36.3177Z" fill="#E8E8E8"/>
<path d="M112.081 36.3177C112.081 44.467 112.081 52.6606 112.081 60.8099C112.081 61.43 113.12 61.4742 113.12 60.8099C113.12 52.6606 113.12 44.467 113.12 36.3177C113.075 35.6534 112.081 35.6534 112.081 36.3177Z" fill="#E8E8E8"/>
<path d="M116.506 60.677C116.506 46.3272 116.506 32.0216 116.506 17.6718C116.506 17.0517 115.468 17.0074 115.468 17.6718C115.468 32.0216 115.468 46.3272 115.468 60.677C115.468 61.2971 116.506 61.2971 116.506 60.677Z" fill="#E8E8E8"/>
<path d="M116.145 17.4503C119.667 17.4503 123.145 17.4503 126.667 17.4503C127.299 17.4503 127.344 16.4317 126.667 16.4317C123.145 16.4317 119.667 16.4317 116.145 16.4317C115.468 16.476 115.468 17.4503 116.145 17.4503Z" fill="#E8E8E8"/>
<path d="M126.261 17.096C126.261 31.623 126.261 46.15 126.261 60.6771C126.261 61.2971 127.299 61.3414 127.299 60.6771C127.299 46.15 127.299 31.623 127.299 17.096C127.299 16.476 126.261 16.476 126.261 17.096Z" fill="#E8E8E8"/>
<path d="M115.874 25.2896C119.396 27.2383 123.19 26.3968 126.802 25.1124C127.434 24.891 127.163 23.9166 126.531 24.1381C123.19 25.2896 119.667 26.2197 116.371 24.4038C115.784 24.0938 115.287 24.9796 115.874 25.2896Z" fill="#E8E8E8"/>
<path d="M116.596 33.0846C117.906 33.8818 119.396 33.7932 120.886 33.7489C122.828 33.7489 124.725 33.5718 126.621 33.1289C127.254 32.9517 126.983 32.0216 126.35 32.1545C124.77 32.5531 123.189 32.686 121.609 32.7303C120.164 32.7746 118.358 32.996 117.093 32.1988C116.551 31.8888 116.055 32.7303 116.596 33.0846Z" fill="#E8E8E8"/>
<path d="M132.944 60.9428C132.944 59.9241 132.944 58.9054 132.944 57.8868C132.944 57.2667 131.905 57.2224 131.905 57.8868C131.905 58.9054 131.905 59.9241 131.905 60.9428C131.95 61.5628 132.944 61.6071 132.944 60.9428Z" fill="#E8E8E8"/>
<path d="M132.718 58.2411C143.375 58.2411 153.987 58.2411 164.644 58.2411C165.276 58.2411 165.321 57.2225 164.644 57.2225C153.987 57.2225 143.375 57.2225 132.718 57.2225C132.086 57.2225 132.086 58.2411 132.718 58.2411Z" fill="#E8E8E8"/>
<path d="M164.418 57.8868C164.418 59.0826 164.418 60.2784 164.418 61.5185C164.418 62.1386 165.457 62.1829 165.457 61.5185C165.457 60.3227 165.457 59.1269 165.457 57.8868C165.457 57.2224 164.418 57.2224 164.418 57.8868Z" fill="#E8E8E8"/>
<path d="M138.047 54.3879C138.137 55.4509 138.227 56.5138 138.363 57.5768C138.408 58.1968 139.446 58.1968 139.401 57.5768C139.311 56.5138 139.221 55.4509 139.085 54.3879C138.995 53.7679 137.956 53.7679 138.047 54.3879Z" fill="#E8E8E8"/>
<path d="M138.543 54.6094C147.439 54.6094 156.335 54.6094 165.231 54.6094C165.864 54.6094 165.909 53.5907 165.231 53.5907C156.335 53.5907 147.439 53.5907 138.543 53.5907C137.911 53.635 137.911 54.6094 138.543 54.6094Z" fill="#E8E8E8"/>
<path d="M164.418 54.8308C164.418 55.6723 164.418 56.5138 164.418 57.3553C164.418 57.9754 165.457 58.0197 165.457 57.3553C165.457 56.5138 165.457 55.6723 165.457 54.8308C165.457 54.1665 164.418 54.1665 164.418 54.8308Z" fill="#E8E8E8"/>
<path d="M150.419 53.7236C150.419 52.1291 150.419 50.579 150.419 48.9846C150.419 48.3645 149.381 48.3202 149.381 48.9846C149.381 50.579 149.381 52.1291 149.381 53.7236C149.381 54.3436 150.419 54.3436 150.419 53.7236Z" fill="#E8E8E8"/>
<path d="M149.923 49.206C153.49 49.206 157.012 49.206 160.58 49.206C161.212 49.206 161.257 48.1874 160.58 48.1874C157.012 48.1874 153.49 48.1874 149.923 48.1874C149.245 48.1874 149.245 49.206 149.923 49.206Z" fill="#E8E8E8"/>
<path d="M160.038 48.9846C160.038 50.6676 160.038 52.3063 160.038 53.9893C160.038 54.6094 161.077 54.6537 161.077 53.9893C161.077 52.3063 161.077 50.6676 161.077 48.9846C161.077 48.3202 160.038 48.3202 160.038 48.9846Z" fill="#E8E8E8"/>
<path d="M152.226 47.833C149.652 45.3085 149.562 40.3481 149.562 37.0264C149.291 37.1592 148.975 37.2478 148.704 37.3807C151.729 40.5695 153.671 44.3784 154.393 48.6745C154.484 49.2946 155.477 49.0289 155.387 48.4088C154.619 43.9356 152.587 39.9938 149.426 36.672C149.11 36.362 148.568 36.5835 148.568 37.0264C148.523 40.6581 148.749 45.7957 151.549 48.5417C151.955 48.9846 152.677 48.3202 152.226 47.833Z" fill="#E8E8E8"/>
<path d="M154.935 46.4601C155.838 42.164 159.135 38.9308 160.49 34.8119C160.174 34.7233 159.857 34.6347 159.496 34.5462C159.09 36.4506 159.587 38.4436 159.406 40.3924C159.135 43.1384 158.322 45.7957 157.058 48.276C156.742 48.8517 157.645 49.3389 157.916 48.7631C158.999 46.6372 159.812 44.4228 160.219 42.0754C160.625 39.6838 159.993 37.115 160.49 34.8119C160.625 34.1918 159.722 33.9261 159.496 34.5462C158.141 38.6651 154.89 41.8982 153.942 46.1943C153.806 46.8144 154.8 47.0801 154.935 46.4601Z" fill="#E8E8E8"/>
<path d="M212.014 183.758C225.968 183.758 239.967 183.758 253.92 183.758C254.552 183.758 254.597 182.739 253.92 182.739C239.967 182.739 225.968 182.739 212.014 182.739C211.382 182.784 211.382 183.758 212.014 183.758Z" fill="#E8E8E8"/>
<path d="M232.832 183.758C232.832 187.656 232.832 191.553 232.832 195.45C232.832 196.071 233.87 196.115 233.87 195.45C233.87 191.553 233.87 187.656 233.87 183.758C233.87 183.138 232.832 183.138 232.832 183.758Z" fill="#E8E8E8"/>
<path d="M227.503 196.203C237.979 196.203 248.501 196.203 258.978 196.203C259.61 196.203 259.655 195.185 258.978 195.185C248.501 195.185 237.979 195.185 227.503 195.185C226.871 195.229 226.871 196.203 227.503 196.203Z" fill="#E8E8E8"/>
<path d="M248.32 196.469C248.32 200.101 248.32 203.777 248.32 207.409C248.32 208.029 249.359 208.073 249.359 207.409C249.359 203.777 249.359 200.101 249.359 196.469C249.359 195.849 248.32 195.805 248.32 196.469Z" fill="#E8E8E8"/>
<path d="M343.692 327.699C357.826 327.699 372.006 327.699 386.14 327.699C386.772 327.699 386.817 326.681 386.14 326.681C372.006 326.681 357.826 326.681 343.692 326.681C343.015 326.681 343.015 327.699 343.692 327.699Z" fill="#E8E8E8"/>
<path d="M366.632 326.814C366.632 322.429 366.632 318.044 366.632 313.66C366.632 313.039 365.593 312.995 365.593 313.66C365.593 318.044 365.593 322.429 365.593 326.814C365.638 327.478 366.632 327.478 366.632 326.814Z" fill="#E8E8E8"/>
<path d="M356.337 313.704C368.394 313.704 380.451 313.704 392.508 313.704C393.14 313.704 393.185 312.685 392.508 312.685C380.451 312.685 368.394 312.685 356.337 312.685C355.659 312.685 355.659 313.704 356.337 313.704Z" fill="#E8E8E8"/>
<path d="M387.946 313.217C387.946 309.319 387.946 305.377 387.946 301.48C387.946 300.86 386.908 300.816 386.908 301.48C386.908 305.377 386.908 309.319 386.908 313.217C386.953 313.837 387.946 313.837 387.946 313.217Z" fill="#E8E8E8"/>
<path d="M439.426 165.865C439.426 174.944 439.426 184.068 439.426 193.147C439.426 193.767 440.464 193.812 440.464 193.147C440.464 184.068 440.464 174.944 440.464 165.865C440.464 165.245 439.426 165.245 439.426 165.865Z" fill="#E8E8E8"/>
<path d="M440.78 165.954C455.728 165.954 470.629 165.954 485.576 165.954C486.209 165.954 486.254 164.935 485.576 164.935C470.629 164.935 455.728 164.935 440.78 164.935C440.103 164.935 440.103 165.954 440.78 165.954Z" fill="#E8E8E8"/>
<path d="M484.673 165.599C484.673 174.28 484.673 183.005 484.673 191.686C484.673 192.306 485.712 192.35 485.712 191.686C485.712 183.005 485.712 174.28 485.712 165.599C485.712 164.979 484.673 164.979 484.673 165.599Z" fill="#E8E8E8"/>
<path d="M440.419 193.767C455.547 193.767 470.629 193.767 485.757 193.767C486.389 193.767 486.434 192.749 485.757 192.749C470.629 192.749 455.547 192.749 440.419 192.749C439.742 192.793 439.742 193.767 440.419 193.767Z" fill="#E8E8E8"/>
<path d="M484.854 191.73C484.628 192.35 484.628 192.97 484.718 193.635C484.763 193.9 485.079 194.033 485.35 193.989C485.621 193.9 485.757 193.635 485.712 193.369C485.621 192.926 485.712 192.439 485.847 191.996C486.028 191.376 485.079 191.11 484.854 191.73Z" fill="#E8E8E8"/>
<path d="M441.548 167.371C441.548 175.122 441.548 182.828 441.548 190.579C441.548 191.199 442.587 191.243 442.587 190.579C442.587 182.828 442.587 175.122 442.587 167.371C442.541 166.751 441.548 166.751 441.548 167.371Z" fill="#E8E8E8"/>
<path d="M442.045 191.819C455.637 191.819 469.23 191.819 482.822 191.819C483.454 191.819 483.499 190.8 482.822 190.8C469.23 190.8 455.637 190.8 442.045 190.8C441.368 190.844 441.368 191.819 442.045 191.819Z" fill="#E8E8E8"/>
<path d="M483.725 191.154C483.725 183.537 483.725 175.919 483.725 168.301C483.725 167.681 482.687 167.637 482.687 168.301C482.687 175.919 482.687 183.537 482.687 191.154C482.687 191.774 483.725 191.774 483.725 191.154Z" fill="#E8E8E8"/>
<path d="M442.226 168.079C455.818 168.079 469.41 168.079 483.003 168.079C483.635 168.079 483.68 167.061 483.003 167.061C469.41 167.061 455.818 167.061 442.226 167.061C441.593 167.061 441.548 168.079 442.226 168.079Z" fill="#E8E8E8"/>
<path d="M442.361 181.588C447.734 180.348 453.469 182.119 458.753 183.138C464.127 184.157 469.455 185.175 474.829 186.194C475.461 186.327 475.732 185.352 475.1 185.22C469.139 184.068 463.223 182.961 457.263 181.809C452.295 180.835 447.102 179.462 442.045 180.613C441.458 180.791 441.729 181.765 442.361 181.588Z" fill="#E8E8E8"/>
<path d="M461.914 183.625C462.998 184.245 464.172 183.891 465.346 183.669C467.288 183.315 469.184 182.784 471.081 182.208C475.19 181.012 479.299 179.683 483.589 179.329C484.222 179.285 484.222 178.266 483.589 178.31C480.112 178.576 476.771 179.462 473.474 180.436C471.713 180.968 469.952 181.499 468.146 181.986C466.701 182.385 463.765 183.537 462.411 182.739C461.869 182.429 461.372 183.315 461.914 183.625Z" fill="#E8E8E8"/>
<path d="M464.353 176.096C462.095 174.501 466.024 171.445 467.559 173.793C468.236 174.856 467.604 176.007 466.475 176.406C465.482 176.716 464.398 176.362 463.54 175.874C462.953 175.564 462.456 176.406 463.043 176.716C464.579 177.557 466.565 177.956 468.01 176.672C469.275 175.564 469.139 173.616 467.83 172.597C464.895 170.294 460.605 174.679 463.856 176.937C464.353 177.292 464.85 176.45 464.353 176.096Z" fill="#E8E8E8"/>
<path d="M277.627 416.766C314.746 416.766 351.865 416.766 388.94 416.766C389.572 416.766 389.617 415.747 388.94 415.747C351.82 415.747 314.701 415.747 277.627 415.747C276.995 415.792 276.995 416.766 277.627 416.766Z" fill="#E8E8E8"/>
<path d="M338.634 426.288C367.987 426.288 397.384 426.288 426.736 426.288C427.368 426.288 427.414 425.27 426.736 425.27C397.384 425.27 367.987 425.27 338.634 425.27C337.957 425.27 337.957 426.288 338.634 426.288Z" fill="#E8E8E8"/>
<path d="M337.641 406.314C364.6 406.314 391.514 406.314 418.472 406.314C419.105 406.314 419.15 405.295 418.472 405.295C391.514 405.295 364.6 405.295 337.641 405.295C337.009 405.339 337.009 406.314 337.641 406.314Z" fill="#E8E8E8"/>
<path d="M367.4 406.535C365.548 409.857 363.516 413.001 361.213 416.057C360.807 416.589 361.71 417.076 362.071 416.544C364.329 413.488 366.406 410.344 368.258 407.022C368.574 406.491 367.716 406.004 367.4 406.535Z" fill="#E8E8E8"/>
<path d="M388.082 417.519C387.359 420.132 386.456 422.656 385.282 425.137C385.011 425.712 385.869 426.2 386.14 425.624C387.359 423.099 388.308 420.486 389.03 417.785C389.256 417.165 388.263 416.899 388.082 417.519Z" fill="#E8E8E8"/>
<path d="M23.0761 391.299C36.4426 391.299 49.8543 391.299 63.2209 391.299C64.0788 391.299 64.0788 389.971 63.2209 389.971C49.8543 389.971 36.4426 389.971 23.0761 389.971C22.2181 389.971 22.2181 391.299 23.0761 391.299Z" fill="#E8E8E8"/>
<path d="M40.1459 403.701C63.0858 403.701 85.9805 403.701 108.92 403.701C109.778 403.701 109.778 402.372 108.92 402.372C85.9805 402.372 63.0858 402.372 40.1459 402.372C39.2879 402.372 39.2879 403.701 40.1459 403.701Z" fill="#E8E8E8"/>
<path d="M62.5884 390.901C59.021 394.533 55.4536 398.12 51.9313 401.752C51.3443 402.372 52.2925 403.302 52.8796 402.682C56.447 399.05 60.0144 395.463 63.5367 391.831C64.1689 391.211 63.2206 390.281 62.5884 390.901Z" fill="#E8E8E8"/>
<path d="M95.3281 425.048C130.144 425.048 164.915 425.048 199.732 425.048C200.59 425.048 200.59 423.719 199.732 423.719C164.915 423.719 130.144 423.719 95.3281 423.719C94.4701 423.719 94.4701 425.048 95.3281 425.048Z" fill="#E8E8E8"/>
<path d="M146.852 414.374C171.869 414.374 196.932 414.374 221.949 414.374C222.807 414.374 222.807 413.046 221.949 413.046C196.932 413.046 171.869 413.046 146.852 413.046C145.949 413.046 145.949 414.374 146.852 414.374Z" fill="#E8E8E8"/>
<path d="M183.339 413.356C179.681 416.899 176.068 420.442 172.411 423.985C171.778 424.605 172.727 425.535 173.359 424.915C177.017 421.372 180.629 417.829 184.287 414.286C184.919 413.71 183.926 412.78 183.339 413.356Z" fill="#E8E8E8"/>
<path d="M88.7348 437.095C105.127 437.095 121.474 437.095 137.866 437.095C138.724 437.095 138.724 435.766 137.866 435.766C121.474 435.766 105.127 435.766 88.7348 435.766C87.8768 435.766 87.8768 437.095 88.7348 437.095Z" fill="#E8E8E8"/>
<path d="M142.517 424.207C140.711 428.237 138.859 432.267 137.053 436.253C136.692 437.006 137.866 437.715 138.227 436.918C140.033 432.887 141.885 428.857 143.691 424.871C144.052 424.074 142.878 423.409 142.517 424.207Z" fill="#E8E8E8"/>
<path d="M232.966 396.26C180.584 396.526 166.134 395.994 110.635 396.26C102.643 396.304 96.0948 396.348 91.6694 396.348C103.275 386.428 114.88 376.551 126.486 366.63C130.459 366.541 136.33 366.453 143.51 366.409C169.024 366.187 184.513 366.453 203.569 366.63C220.684 366.763 218.697 366.541 252.7 366.409C328.022 366.187 334.299 367.383 365.774 366.63C371.689 366.497 389.662 366.01 413.866 366.231C419.827 366.276 424.659 366.364 427.639 366.453C428.316 366.276 430.484 365.567 431.974 363.441C432.381 362.865 433.284 361.492 433.193 359.588C433.058 356.355 429.987 354.495 429.716 354.362C436.445 356.665 441.954 358.614 445.747 359.987C465.978 367.383 482.144 374.381 494.472 379.74C497.813 381.201 500.568 382.397 502.284 383.15C502.826 383.062 505.264 382.663 507.432 384.169C507.793 384.435 510.096 386.029 509.916 388.199C509.735 390.104 507.703 391.211 506.619 391.831C504.09 393.248 501.561 393.248 501.065 393.248C494.517 393.292 494.156 395.507 478.26 396.481C469.545 397.013 466.068 396.57 453.604 396.26C447.418 396.127 446.47 396.216 426.465 396.26C426.465 396.26 402.441 396.348 365.412 396.26C344.459 396.216 337.234 396.127 321.204 396.038C297.451 395.95 275.64 396.083 232.966 396.26Z" fill="white"/>
<path d="M125.854 366.01C114.022 376.019 102.191 386.029 90.3599 396.038C89.6826 396.614 90.676 397.544 91.3082 396.968C103.139 386.959 114.971 376.95 126.802 366.94C127.479 366.409 126.531 365.478 125.854 366.01Z" fill="#161616"/>
<path d="M126.711 367.161C165.998 367.161 205.285 367.161 244.527 367.161C283.633 367.161 322.784 367.161 361.89 367.161C384.017 367.161 406.144 367.161 428.271 367.161C429.129 367.161 429.129 365.833 428.271 365.833C388.984 365.833 349.698 365.833 310.456 365.833C271.35 365.833 232.199 365.833 193.092 365.833C170.965 365.833 148.838 365.833 126.711 365.833C125.853 365.833 125.853 367.161 126.711 367.161Z" fill="#161616"/>
<path d="M91.4435 396.924C140.439 396.924 189.389 396.924 238.385 396.924C287.2 396.924 336.06 396.924 384.875 396.924C412.376 396.924 439.877 396.924 467.377 396.924C468.235 396.924 468.235 395.595 467.377 395.595C418.382 395.595 369.431 395.595 320.436 395.595C271.621 395.595 222.761 395.595 173.946 395.595C146.445 395.595 118.944 395.595 91.4435 395.595C90.5403 395.595 90.5403 396.924 91.4435 396.924Z" fill="#161616"/>
<path d="M424.659 352.502C428.226 352.502 431.478 354.539 432.336 358.038C433.148 361.448 431.252 364.77 427.865 365.921C427.052 366.187 427.414 367.471 428.226 367.206C432.02 365.877 434.413 362.29 433.736 358.304C433.013 353.919 429.039 351.129 424.614 351.129C423.801 351.173 423.801 352.502 424.659 352.502Z" fill="#161616"/>
<path d="M425.02 352.723C450.579 362.29 475.957 372.432 501.11 383.106C501.923 383.46 502.6 382.309 501.787 381.954C476.544 371.236 451.076 361.094 425.381 351.439C424.523 351.129 424.207 352.413 425.02 352.723Z" fill="#161616"/>
<path d="M501.878 383.549C504.181 383.46 507.071 384.08 508.561 385.985C510.864 388.908 507.477 390.856 505.039 391.565C501.02 392.761 496.549 393.16 492.395 393.824C487.789 394.532 483.183 395.108 478.531 395.33C474.287 395.551 469.997 395.285 465.752 395.507C464.894 395.551 464.894 396.88 465.752 396.836C471.758 396.481 477.764 396.836 483.815 396.26C489.73 395.684 495.646 394.665 501.516 393.691C504.677 393.16 510.367 392.274 510.729 388.199C511.135 383.992 505.219 382.131 501.878 382.264C501.02 382.264 501.02 383.593 501.878 383.549Z" fill="#161616"/>
<path d="M175.888 275.172C166.992 282.214 170.289 296.918 173.314 330.578C174.759 346.744 175.708 362.024 176.25 376.285C172.908 378.19 166.179 382.309 166.902 384.257C167.76 386.605 179.049 384.567 182.21 383.992C191.106 383.992 198.286 384.789 203.434 385.63C207.589 386.295 212.014 387.225 212.601 385.985C213.098 384.922 210.614 382.751 208.221 380.936C203.705 378.411 199.189 375.887 194.629 373.362C193.319 360.562 193.138 350.154 193.183 343.156C193.319 320.259 195.035 302.499 195.035 302.499C196.796 284.03 198.738 277.298 194.312 273.71C189.932 270.256 181.217 270.964 175.888 275.172Z" fill="white" stroke="#161616" stroke-width="2" stroke-miterlimit="10"/>
<path d="M178.281 385.276C181.081 384.656 183.655 383.549 186.048 382.043C186.41 381.821 186.094 381.246 185.687 381.467C183.339 382.973 180.81 384.036 178.101 384.656C177.694 384.7 177.875 385.365 178.281 385.276Z" fill="#161616"/>
<path d="M182.03 384.434C183.836 383.947 185.417 382.353 187.223 382.619C189.797 382.973 192.461 384.036 194.945 384.744C195.351 384.877 195.532 384.213 195.125 384.124C192.416 383.371 189.707 382.619 186.997 381.91C186.591 381.777 186.275 381.644 185.868 381.733C185.552 381.821 184.694 382.619 184.243 382.884C183.475 383.327 182.662 383.593 181.804 383.814C181.398 383.903 181.578 384.523 182.03 384.434Z" fill="#161616"/>
<path d="M183.79 383.903C185.416 383.549 186.951 383.549 188.622 383.903C189.841 384.169 190.925 384.434 192.144 384.302C192.551 384.257 192.596 383.593 192.144 383.637C190.519 383.814 189.074 383.239 187.493 383.062C186.184 382.929 184.874 383.017 183.565 383.283C183.203 383.372 183.384 383.992 183.79 383.903Z" fill="#161616"/>
<path d="M184.603 383.194C187.268 383.194 189.887 383.504 192.506 384.169C192.912 384.257 193.093 383.637 192.686 383.549C190.022 382.84 187.358 382.53 184.603 382.53C184.152 382.53 184.152 383.194 184.603 383.194Z" fill="#161616"/>
<path opacity="0.11" d="M180.539 273.445C182.797 274.773 180.268 282.524 179.501 285.004C177.152 292.843 177.604 303.562 178.462 325.042C178.959 336.867 180.539 353.387 185.371 373.362C200.905 380.404 208.446 384.612 207.95 385.94C207.498 387.18 200.228 386.029 186.139 382.397C184.197 383.239 181.217 384.346 177.423 384.922C176.701 385.01 167.985 386.295 167.173 384.169C166.36 382.043 173.72 377.481 176.43 375.842C175.707 364.814 175.075 355.469 174.624 348.383C173.766 335.14 173.72 333.678 173.359 329.737C171.959 314.545 170.876 313.438 170.288 303.074C169.114 282.214 173.043 277.253 175.662 275.128C176.294 274.729 179.094 272.603 180.539 273.445Z" fill="#6D6C6C"/>
<path opacity="0.19" d="M170.289 290.319C174.804 331.065 178.417 361.315 179.772 370.35C179.907 371.325 180.223 373.362 181.578 375.621C185.597 382.53 194.809 384.523 200.815 385.187C192.551 383.106 187.81 383.15 184.919 383.682C184.513 383.77 183.429 383.947 181.849 384.169C179.997 384.434 176.972 384.877 173.133 384.922C171.417 384.966 169.114 384.922 166.45 384.656C166.631 384.169 166.947 383.416 167.489 382.663C168.347 381.378 169.385 380.626 171.327 379.385C172.682 378.5 174.443 377.481 176.475 376.374C174.398 347.718 172.366 319.019 170.289 290.319Z" fill="#6D6C6C"/>
<path d="M326.668 368.667C332.493 368.49 338.454 368.224 344.46 367.914C348.253 367.737 351.956 367.516 355.704 367.25C358.459 365.966 361.258 364.726 364.013 363.441C365.819 365.346 368.709 368.092 372.638 370.793C386.863 380.581 401.403 380.493 401.313 382.929C401.222 384.567 394.539 385.852 389.346 386.206C376.296 387.092 365.774 382.751 359.723 379.518C349.788 381.157 339.854 382.751 329.919 384.39C328.836 379.164 327.752 373.938 326.668 368.667Z" fill="#161616"/>
<path d="M280.112 268.263C270.584 277.785 267.693 292.755 272.48 306.839C266.203 329.427 259.881 351.97 253.604 374.558C253.243 375.665 252.069 379.651 254.011 383.593C256.314 388.243 261.958 390.989 268.055 390.281C291.356 389.616 314.612 388.952 337.913 388.332C339.403 378.101 340.848 367.87 342.338 357.639C328.836 358.569 315.289 359.455 301.787 360.385C307.206 348.737 314.883 331.198 322.65 309.186C333.849 277.608 333.126 271.097 329.875 266.668C321.701 255.552 294.788 253.603 280.112 268.263Z" fill="#A3A2A2"/>
<path opacity="0.25" d="M279.975 288.813C279.027 286.2 276.453 279.247 274.105 279.512C271.486 279.778 269.815 288.946 270.357 296.387C270.718 300.816 271.802 304.403 272.75 306.795C272.073 309.053 270.944 312.951 269.544 317.779C258.345 356.709 259.609 352.989 258.3 357.728C256.132 365.434 254.371 371.679 253.242 375.577C252.971 376.639 252.339 379.43 253.558 382.619C254.823 385.94 257.306 387.623 258.3 388.288C259.022 388.775 261.1 390.104 263.944 390.414C264.486 390.458 264.712 390.458 267.918 390.325C269.408 390.281 270.944 390.236 272.434 390.192C276.724 390.015 281.375 389.971 282.956 389.971C286.794 389.926 299.483 389.572 337.822 388.288C338.635 383.061 339.447 377.791 340.215 372.565C289.233 387.756 272.479 383.947 267.512 376.462C257.216 360.828 290.497 317.513 279.975 288.813Z" fill="#6D6C6C"/>
<path opacity="0.3" d="M254.235 372.609C258.977 355.469 263.718 338.285 268.415 321.145C267.331 325.574 258.164 364.238 263.312 378.323C263.673 379.385 264.622 381.866 266.879 384.169C273.021 390.414 283.136 389.616 286.749 389.173C280.472 389.838 275.053 390.192 270.763 390.325C265.344 390.546 262.364 390.458 259.248 388.731C258.254 388.199 255.726 386.738 254.145 383.726C251.571 378.677 253.874 373.406 254.235 372.609Z" fill="#6D6C6C"/>
<path d="M436.986 244.169C442.36 241.91 447.779 239.563 453.288 237.127C456.72 235.577 460.152 234.071 463.494 232.521C465.616 230.351 467.738 228.181 469.861 226.01C472.254 227.162 475.957 228.668 480.608 229.819C497.497 233.85 510.999 228.579 511.812 230.882C512.354 232.432 506.574 236.02 501.877 238.19C490.046 243.638 478.666 243.372 471.757 242.53C463.087 247.579 454.462 252.628 445.792 257.677C442.857 253.204 439.922 248.687 436.986 244.169Z" fill="#161616"/>
<path d="M278.485 260.025C280.246 259.405 283 258.475 286.523 257.677C307.611 252.85 321.926 260.335 340.305 262.815C356.562 265.03 369.025 262.372 382.075 259.67C395.081 256.924 416.305 250.547 439.47 233.672C441.773 235.045 446.515 238.279 449.902 244.302C453.74 251.078 453.695 257.456 453.514 260.069C442.993 268.041 427.142 278.538 406.144 287.219C392.733 292.799 381.534 295.501 359.181 300.993C334.615 307.016 317.907 311.002 295.328 311.224C283.768 311.357 274.285 310.426 268.008 309.629C271.531 293.065 275.008 276.545 278.485 260.025Z" fill="#A3A2A2"/>
<path opacity="0.13" d="M268.008 309.452C272.208 310.072 277.853 310.781 284.491 311.091C289.458 311.356 298.58 311.667 312.172 310.161C325.493 308.699 336.331 306.263 357.374 301.391C369.341 298.645 375.528 297.228 383.25 294.881C390.836 292.578 400.093 289.787 411.699 284.606C414.86 283.188 427.549 277.431 442.947 267.377C447.237 264.587 450.714 262.106 453.198 260.291C453.424 258.74 453.559 256.614 453.288 254.134C452.927 251.3 452.159 249.041 451.437 247.491C405.377 273.976 347.801 294.571 284.31 288.193C280.472 287.794 276.678 287.351 272.93 286.776C271.35 294.349 269.679 301.879 268.008 309.452Z" fill="#6D6C6C"/>
<path opacity="0.11" d="M268.144 309.319C268.957 305.599 269.815 301.879 270.628 298.158C286.568 300.24 305.083 301.303 325.539 299.974C382.843 296.254 426.917 275.703 453.198 260.379C445.973 265.738 435.226 273.046 421.362 280.132C397.79 292.135 379.005 296.431 345.995 304.004C317.14 310.604 303.231 311.312 292.755 311.224C282.64 311.047 274.15 310.161 268.144 309.319Z" fill="#6D6C6C"/>
<path d="M166.133 241.556C154.934 244.523 146.355 266.801 151.367 283.853C156.47 301.258 174.262 308.168 188.26 313.615C214.858 323.935 239.785 319.196 252.022 316.848C260.964 315.165 268.189 312.862 273.156 311.091C275.775 308.788 283.497 301.347 286.252 288.503C289.548 273.179 283.362 261.088 281.871 258.386C257.803 267.554 239.469 266.358 228.857 264.498C204.653 260.202 186.906 250.503 186.906 250.503C175.662 244.346 171.914 240.006 166.133 241.556Z" fill="white" stroke="#161616" stroke-width="2" stroke-miterlimit="10"/>
<path opacity="0.13" d="M152.767 259.228C152.451 268.971 179.771 277.475 181.351 278.006C190.789 281.107 205.465 284.517 242.223 282.967C253.332 282.524 268.64 281.505 286.929 279.114C286.974 276.501 286.838 273.179 286.026 269.37C285.032 264.897 283.452 261.309 282.097 258.74C279.388 259.582 275.549 260.733 270.898 262.018C266.834 263.125 264.17 263.834 261.099 264.454C261.099 264.454 253.603 265.96 245.204 266.092C233.056 266.27 222.896 263.347 212.6 260.335C202.033 257.279 189.57 252.584 183.79 248.642C181.984 247.402 180.403 246.516 177.287 244.701C172.184 241.777 170.875 241.423 169.565 241.29C166.133 240.98 163.379 242.663 162.024 243.549C157.87 246.118 156.109 249.927 154.889 252.584C154.438 253.559 152.812 256.969 152.767 259.228Z" fill="#6D6C6C"/>
<path opacity="0.15" d="M164.914 242.043C172.365 247.757 182.977 254.932 196.75 261.354C203.975 264.72 215.626 270.034 230.889 273.002C241.726 275.083 261.415 277.386 286.206 271.274C285.935 269.148 285.348 266.535 284.174 263.657C283.407 261.796 282.549 260.158 281.736 258.829C270.672 263.524 260.963 265.251 254.416 265.915C238.294 267.598 225.786 264.631 218.335 262.815C211.697 261.176 203.433 259.183 194.311 254.223C190.97 252.451 185.235 248.997 175.616 244.169C173.358 243.018 171.462 242.087 170.152 241.512C168.346 241.689 166.63 241.866 164.914 242.043Z" fill="#6D6C6C"/>
<path d="M231.251 244.346C234.005 242.663 236.308 242.353 241.231 241.6C253.92 239.607 252.7 239.519 255.094 239.43C260.829 239.209 264.712 239.032 268.867 241.335C270.176 242.043 273.428 243.903 275.279 247.801C275.595 248.465 277.853 253.337 276.047 257.412C274.06 261.885 265.931 263.037 249.675 265.384C247.417 265.694 241.005 266.58 233.102 265.207C227.954 264.321 226.464 263.169 225.561 262.062C222.716 258.563 223.935 252.761 226.148 249.218C227.819 246.472 230.077 245.055 231.251 244.346Z" fill="#161616"/>
<path d="M272.93 251.123C273.427 250.148 276.498 250.37 278.665 251.61C280.788 252.806 282.549 255.286 282.549 257.899C282.504 260.733 280.427 262.726 277.401 265.605C273.472 269.37 270.582 270.389 270.898 271.584C271.35 273.4 277.943 272.16 278.936 274.64C279.794 276.766 276.137 280.487 275.053 280.044C274.33 279.734 275.234 277.874 274.105 276.633C272.614 275.039 269.86 276.633 268.46 275.216C267.331 274.02 267.828 271.584 268.55 270.079C269.544 268.13 270.808 268.086 274.646 264.764C277.582 262.239 277.898 261.354 277.943 260.689C277.988 260.069 277.853 259.405 276.001 256.526C273.563 252.584 272.569 251.743 272.93 251.123Z" fill="#161616"/>
<path d="M261.867 251.875C260.739 252.628 258.029 254.533 257.713 257.943C257.442 260.999 259.294 263.258 259.745 263.745C252.791 266.004 251.301 267.067 251.391 267.643C251.617 268.75 257.848 268.971 263.042 267.554C264.983 267.023 266.744 266.27 268.099 265.65C270.673 264.498 271.983 263.967 272.66 263.081C274.376 260.911 273.789 257.855 273.337 255.684C272.841 253.248 272.525 251.521 270.989 250.458C268.28 248.554 263.945 250.458 261.867 251.875Z" fill="#161616"/>
<path d="M217.387 254.311C216.394 252.85 216.168 251.255 216.032 250.015C215.581 246.826 216.394 244.213 216.936 242.84C216.755 240.803 216.529 238.766 216.349 236.773C217.026 237.083 217.794 237.481 218.606 237.969C220.006 238.854 221.135 239.784 221.993 240.582C223.122 240.006 224.387 239.43 225.877 238.899C227.457 238.323 228.947 237.924 230.257 237.614C230.528 236.906 231.16 235.665 232.425 234.558C233.282 233.805 234.186 233.362 234.773 233.141C234.773 233.54 234.773 233.938 234.818 234.381C234.998 235.843 235.405 237.083 235.856 237.969C236.534 238.456 239.514 240.714 240.237 244.833C240.824 248.067 239.65 250.68 238.972 251.831C236.308 256.57 230.934 257.589 229.715 257.81C225.877 258.563 219.916 258.076 217.387 254.311Z" fill="#161616"/>
<path d="M234.501 224.505C235.134 223.84 235.224 224.372 235.359 224.992C235.45 225.479 235.495 226.01 235.585 226.498C235.675 227.029 235.901 227.605 236.443 227.87C237.798 228.535 239.424 226.808 240.372 226.055C241.049 225.479 240.056 224.549 239.424 225.125C238.972 225.523 238.475 225.877 237.978 226.232C237.437 226.63 237.121 226.808 236.94 226.055C236.759 225.257 236.804 224.372 236.443 223.619C235.811 222.29 234.411 222.733 233.598 223.619C232.966 224.194 233.914 225.125 234.501 224.505Z" fill="white"/>
<path d="M219.645 249.262C221.768 251.211 225.154 250.281 225.787 247.447C225.877 247.048 225.245 246.871 225.154 247.269C224.658 249.572 221.948 250.458 220.187 248.819C219.781 248.509 219.329 248.997 219.645 249.262Z" fill="white"/>
<path d="M229.579 248.775C229.534 248.775 229.534 248.82 229.489 248.82C229.579 248.908 229.715 248.997 229.805 249.085C229.805 249.041 229.805 249.041 229.805 248.997C229.715 249.085 229.67 249.13 229.579 249.218C229.534 249.174 229.534 249.13 229.489 249.085C229.625 249.13 229.805 249.174 229.941 249.218C229.941 249.174 229.896 249.13 229.896 249.041C229.67 249.13 229.489 249.218 229.263 249.307C229.85 250.37 228.947 251.61 227.728 251.388C227.322 251.3 227.141 251.964 227.547 252.008C229.354 252.363 230.708 250.547 229.85 248.952C229.67 248.598 229.173 248.864 229.218 249.218C229.263 249.351 229.263 249.44 229.354 249.528C229.444 249.705 229.67 249.705 229.805 249.661C230.528 249.351 230.076 248.377 229.354 248.598C229.263 248.642 229.128 248.731 229.128 248.82C229.083 248.997 229.083 249.085 229.128 249.262C229.128 249.395 229.309 249.528 229.444 249.528C229.625 249.484 229.715 249.484 229.896 249.395C230.302 249.13 229.986 248.554 229.579 248.775Z" fill="white"/>
<path d="M229.58 249.262C229.986 251.388 233.011 251.433 233.508 249.351C233.599 248.952 232.966 248.775 232.876 249.174C232.515 250.635 230.528 250.547 230.257 249.085C230.167 248.642 229.489 248.819 229.58 249.262Z" fill="white"/>
<path d="M230.934 245.896C233.373 246.959 236.037 245.498 236.308 242.885C236.353 242.442 235.676 242.442 235.631 242.885C235.405 244.966 233.237 246.206 231.251 245.321C230.889 245.143 230.528 245.719 230.934 245.896Z" fill="white"/>
<path d="M211.201 260.025C210.794 258.563 211.381 256.747 212.555 255.729C214 254.489 215.897 254.799 218.29 255.153C220.729 255.552 226.283 256.437 228.857 260.955C229.489 262.062 230.347 263.568 229.715 264.675C228.36 267.155 220.864 265.428 217.116 264.099C214.271 263.125 211.788 262.239 211.201 260.025Z" fill="#161616"/>
<path d="M244.437 250.37C243.443 250.458 243.534 252.141 241.908 254.267C240.327 256.304 238.341 257.235 234.728 258.829C231.206 260.423 229.806 260.423 228.135 262.239C227.729 262.682 226.148 264.409 226.69 265.561C227.232 266.713 229.58 266.624 231.07 266.624C232.29 266.58 233.238 266.447 238.07 265.03C240.192 264.409 241.953 263.834 244.166 262.859C246.108 261.974 246.604 261.531 246.966 261.043C248.275 259.316 247.869 257.057 247.643 255.817C247.191 253.426 245.791 250.237 244.437 250.37Z" fill="#161616"/>
<path d="M134.975 245.896C135.246 249.44 138.091 251.787 140.981 254.179C143.465 256.26 148.477 259.715 156.515 261.132C158.006 260.069 160.534 258.032 162.521 254.621C164.147 251.787 164.734 249.13 164.96 247.447C157.78 243.239 150.645 239.032 143.465 234.824C138.046 237.481 134.659 241.777 134.975 245.896Z" fill="white" stroke="#161616" stroke-width="2" stroke-miterlimit="10"/>
<path d="M132.853 198.994C128.563 200.411 126.125 203.688 121.473 210.11C116.235 217.374 112.261 223.84 110.229 228.712C109.913 229.421 110.139 230.262 110.771 230.749C111.584 231.369 113.21 231.857 114.113 232.255C113.752 234.691 113.526 238.234 114.384 242.309C115.919 249.661 120.119 254.533 122.196 256.659C125.989 257.013 131.95 257.057 138.588 254.71C140.801 253.913 144.729 252.496 148.748 249.041C152.271 246.029 154.348 242.796 155.522 240.626C156.651 240.892 158.502 241.069 160.489 240.449C164.689 239.164 168.934 234.558 167.579 230.971C166.585 228.313 162.657 226.586 158.186 227.295C158.593 225.612 158.999 223.176 158.999 220.253C158.999 219.544 158.864 214.185 156.922 209.978C153.219 201.961 141.568 196.115 132.853 198.994Z" fill="white" stroke="#161616" stroke-width="2" stroke-miterlimit="10"/>
<path d="M113.977 220.74C113.029 218.348 111.087 212.458 112.939 205.504C113.571 203.157 114.835 198.684 119.08 195.052C124.183 190.667 130.189 190.446 131.905 190.446C132.898 189.339 134.614 187.744 137.143 186.725C138.137 186.327 140.891 185.352 146.897 186.194C150.058 186.637 154.845 187.7 160.264 190.446C164.463 192.616 167.037 195.052 168.573 196.823C175.527 204.84 172.908 212.059 180.133 218.304C182.933 220.74 183.7 219.987 187.9 223.442C189.39 224.682 193.138 227.959 196.389 233.008C198.647 236.507 204.337 245.276 203.027 256.393C202.034 265.118 196.389 277.785 188.171 278.804C179.275 279.911 177.107 266.092 159.36 259.449C149.381 255.729 142.02 257.057 140.891 253.426C139.672 249.44 147.304 243.638 153.671 239.474C154.574 240.05 156.335 241.025 158.367 240.715C162.567 240.094 165.457 234.514 163.967 231.148C163.379 229.775 162.16 229.066 161.799 228.845C158.773 227.118 155.387 228.889 155.116 229.022C151.458 225.08 148.794 221.449 146.987 218.747C144.549 215.071 143.42 212.679 143.014 211.838C141.749 209.136 140.981 206.744 140.485 204.928C137.866 205.061 134.253 205.549 130.37 207.054C129.466 207.409 126.305 208.693 122.783 211.306C122.332 211.616 120.39 213.078 118.177 215.469C116.371 217.33 114.971 219.234 113.977 220.74Z" fill="#232323"/>
<path d="M121.744 221.183C122.693 222.91 123.776 224.106 125.809 224.46C127.795 224.814 129.737 224.372 131.363 223.176C131.86 222.777 131.363 221.936 130.866 222.334C129.602 223.264 128.112 223.707 126.531 223.574C124.589 223.397 123.551 222.334 122.648 220.696C122.286 220.12 121.428 220.607 121.744 221.183Z" fill="#161616"/>
<path d="M123.144 215.337C126.305 213.521 129.466 214.274 132.446 216.178C132.988 216.532 133.485 215.647 132.943 215.337C129.692 213.255 126.124 212.502 122.647 214.495C122.105 214.805 122.602 215.691 123.144 215.337Z" fill="#161616"/>
<path d="M125.764 230.705C125.628 231.281 125.402 231.281 125.086 230.705C125.131 230.617 125.177 230.572 125.222 230.484C125.312 230.439 125.447 230.439 125.538 230.484C125.628 230.617 125.718 230.749 125.809 230.927C125.764 230.927 125.764 230.971 125.764 231.015C125.538 231.015 125.267 231.015 125.041 231.015C125.131 230.838 125.222 230.616 125.267 230.439C124.996 230.395 124.77 230.705 124.77 230.927C124.77 231.237 124.996 231.414 125.267 231.414C125.854 231.458 126.215 230.661 125.718 230.306C125.493 230.129 125.222 230.129 124.996 230.306C124.635 230.617 124.635 231.281 125.131 231.458C125.538 231.591 126.035 231.281 126.035 230.838C126.035 230.395 125.628 230.085 125.222 230.174C124.86 230.262 124.589 230.617 124.725 230.971C124.996 231.547 125.944 231.325 125.764 230.705Z" fill="#161616"/>
<path d="M130.595 229.066C130.64 229.288 130.324 229.421 130.143 229.244C130.098 229.199 130.053 229.155 130.053 229.066C130.414 228.668 130.595 228.668 130.685 229.111C130.866 228.491 129.917 228.225 129.692 228.845C129.556 229.288 129.917 229.731 130.369 229.731C130.821 229.731 131.137 229.376 131.046 228.933C131.001 228.535 130.595 228.225 130.143 228.313C129.692 228.402 129.466 228.889 129.556 229.288C129.782 229.952 130.775 229.686 130.595 229.066Z" fill="#161616"/>
<path d="M129.105 233.274C129.421 233.274 129.24 233.894 128.924 233.717C128.563 233.54 129.06 232.964 129.24 233.318C128.924 232.742 128.066 233.274 128.382 233.805C128.608 234.204 129.15 234.293 129.511 234.027C129.963 233.717 129.918 233.097 129.466 232.831C129.06 232.565 128.473 232.742 128.337 233.23C128.202 233.717 128.608 234.293 129.15 234.248C129.421 234.248 129.647 234.027 129.647 233.761C129.602 233.495 129.376 233.23 129.105 233.274Z" fill="#161616"/>
<path d="M114.429 240.36C117.996 240.404 121.248 239.12 123.776 236.64C124.228 236.197 123.505 235.488 123.054 235.931C120.706 238.234 117.725 239.386 114.429 239.342C113.752 239.342 113.752 240.316 114.429 240.36Z" fill="#161616"/>
<path opacity="0.1" d="M140.484 204.707C141.207 209.756 142.065 213.875 142.652 216.665C144.278 224.15 145.452 227.162 144.82 231.901C144.323 235.533 143.058 238.146 142.336 239.607C137.098 250.325 125.492 255.286 121.834 256.703C123.867 256.88 126.305 256.925 128.969 256.703C133.846 256.26 137.865 255.02 140.755 253.869C141.839 254.931 143.194 256.083 144.82 257.146C149.2 259.981 153.535 260.911 156.289 261.265C157.373 260.556 158.412 259.848 159.496 259.139C161.618 260.025 164.734 261.486 168.166 263.878C178.462 271.009 180.945 278.892 187.177 278.626C190.293 278.494 193.183 276.456 193.815 275.969C195.486 274.729 196.705 273.267 198.06 270.964C199.776 268.041 203.117 262.239 203.253 253.869C203.343 248.687 202.124 244.391 200.995 241.467C190.79 253.913 175.436 258.076 164.734 252.85C157.554 249.351 154.303 242.53 153.083 239.43C156.876 241.423 161.257 240.404 163.244 237.57C164.734 235.444 165.231 231.724 162.792 229.465C160.85 227.605 157.689 227.295 155.07 228.756C152.677 226.32 150.058 223.176 147.529 219.367C144.052 213.964 141.839 208.782 140.484 204.707Z" fill="#6D6C6C"/>
<path d="M52.6086 197.931C58.1178 197.665 62.498 201.297 63.943 202.493C64.3043 202.803 65.3881 203.644 67.9169 206.833C70.3554 209.933 71.5294 212.369 74.9162 216.665C78.3933 221.094 81.8253 223.574 88.644 228.535C94.8757 233.097 99.7978 235.665 106.842 239.386C118.312 245.365 127.479 250.192 140.349 253.913C148.297 256.216 150.058 255.862 156.831 258.519C165.592 261.929 174.307 265.34 175.752 272.426C176.565 276.323 175.12 281.151 171.778 283.631C168.617 285.979 163.876 286.2 150.825 281.594C128.834 273.843 112.893 262.948 104.675 256.925C102.327 255.197 99.1657 252.628 92.7985 247.535C81.735 238.677 72.839 231.281 66.8782 226.188C65.3881 225.877 62.3174 225.257 58.3435 224.46C52.1118 223.22 50.3507 222.91 48.0477 221.67C44.7964 219.943 41.0483 216.842 41.6354 215.381C42.403 213.521 50.1249 215.115 51.3893 215.337C50.6668 214.229 49.5379 212.812 47.8671 211.395C43.9836 208.117 41.1838 208.427 40.6871 206.744C39.9194 204.043 45.9705 198.241 52.6086 197.931Z" fill="white" stroke="#161616" stroke-width="2" stroke-miterlimit="10"/>
<path d="M41.4097 204.707C45.4287 204.751 48.3639 207.32 51.1185 209.845C51.6152 210.287 52.2926 209.579 51.841 209.136C48.8607 206.39 45.6545 203.733 41.4097 203.688C40.7775 203.733 40.7775 204.707 41.4097 204.707Z" fill="#161616"/>
<path d="M44.2546 201.695C48.2736 201.828 51.7959 203.511 54.415 206.523C54.8214 207.01 55.5439 206.301 55.1375 205.814C52.3829 202.625 48.4994 200.854 44.2546 200.721C43.5772 200.677 43.5772 201.651 44.2546 201.695Z" fill="#161616"/>
<path d="M50.2153 198.905C53.0602 199.569 55.5439 201.075 57.3953 203.29C57.8017 203.777 58.5243 203.068 58.1178 202.581C56.1309 200.234 53.5118 198.639 50.4862 197.931C49.854 197.798 49.5831 198.772 50.2153 198.905Z" fill="#161616"/>
<path opacity="0.16" d="M41.3193 204.131C42.4031 203.29 44.7061 204.574 46.693 205.726C49.267 207.187 50.983 208.605 51.57 209.047C52.7441 209.8 53.5118 211.129 53.5118 211.129C54.5955 212.856 60.0144 214.849 60.0144 214.849C62.6787 215.824 63.9882 217.551 71.2585 223.486C79.3868 230.085 85.167 235.666 86.5668 236.994C98.8948 248.554 124.047 262.727 150.464 268.883C161.754 271.496 174.849 273.09 175.391 277.918C175.662 280.531 172.275 283.1 170.017 284.251C167.579 285.536 161.347 287.794 136.285 275.792C129.105 272.337 121.248 268.573 111.268 261.841C107.113 259.05 104.178 256.792 89.8633 245.143C83.7671 240.183 76 233.85 66.9234 226.365C62.1368 225.656 47.3704 223.264 42.674 217.861C42.2225 217.33 41.1387 216.089 41.5451 215.292C42.2225 213.831 47.2349 214.717 51.5248 215.735C49.854 213.034 48.0477 211.528 46.7833 210.598C43.9384 208.605 41.229 208.117 40.8677 206.08C40.6871 205.416 40.7774 204.53 41.3193 204.131Z" fill="#6D6C6C"/>
<path opacity="0.11" d="M41.8159 215.647C43.7125 216.665 45.7898 217.684 48.0476 218.658C55.4986 221.847 62.5431 223.309 68.3232 223.973C69.407 224.77 71.1229 226.01 73.2002 227.605C81.0575 233.761 86.2958 238.987 87.4247 240.139C94.5595 247.137 110.59 258.386 127.208 266.58C137.64 271.717 153.219 278.139 173.539 281.904C172.998 282.701 171.914 284.03 170.108 284.738C169.114 285.137 168.03 285.314 165.547 285.137C161.573 284.871 158.999 284.118 158.999 284.118C146.671 280.531 133.982 274.33 133.982 274.33C126.305 270.61 122.467 268.75 117.996 265.96C111.132 261.752 106.436 257.943 103.772 255.773C94.1531 247.978 81.7349 238.013 66.7879 225.966C62.0012 225.39 58.0725 224.549 55.1373 223.84C47.009 221.847 44.5254 220.164 43.0352 217.95C42.3127 217.064 41.9965 216.178 41.8159 215.647Z" fill="#6D6C6C"/>
</svg>
